<svg width="128" height="128" viewBox="0 0 128 128" fill="none" xmlns="http://www.w3.org/2000/svg">
<rect width="128" height="128" rx="30" fill="#FFFCF6"/>
<path d="M35.58 102.9V104H11.6V102.9H12.92C16.77 102.9 19.96 99.82 19.96 96.08V35.03C19.96 31.18 16.77 28.1 12.92 28.1H11.6V27H35.58V28.1H34.15C30.41 28.1 27.22 31.18 27.11 35.03V96.08C27.22 99.82 30.3 102.9 34.15 102.9H35.58ZM117.24 71.99H118.12L116.8 89.26C110.97 98.72 101.07 105.65 85.8895 105.65C62.8995 105.54 46.6195 89.81 46.6195 65.5C46.6195 41.63 62.3495 25.57 86.5495 25.57C97.3295 25.57 106.13 28.76 112.51 32.94L114.71 48.45H113.83C110.53 35.69 99.7495 28.87 86.4395 28.76C67.1895 28.76 54.8695 43.39 54.8695 65.28C54.8695 87.39 67.4095 101.8 85.8895 102.35C101.51 102.24 114.71 94.43 117.24 71.99Z" fill="black"/>
</svg>
